<svg id="Layer_1" data-name="Layer 1" xmlns="http://www.w3.org/2000/svg" viewBox="0 0 204.76 32"><defs><style>.cls-1{fill:#111;}.cls-2{fill:#181818;}.cls-3{fill:#80d284;}.cls-4{fill:#ffac00;}.cls-5{fill:#00c3b5;}</style></defs><path class="cls-1" d="M43.47,10.63c0-1.11,0-2.07,0-2.9s-.06-1.54-.11-2.15-.12-1.11-.19-1.51a9.16,9.16,0,0,0-.22-1V3c.26,0,.53,0,.82,0s.52,0,.83,0h.94a17.83,17.83,0,0,0,1.91-.13,26.12,26.12,0,0,1,3.09-.14,10.82,10.82,0,0,1,3.25.46,7.63,7.63,0,0,1,2.57,1.32A6,6,0,0,1,58,6.63a6.47,6.47,0,0,1,.62,2.87,7.26,7.26,0,0,1-.37,2.41,5.68,5.68,0,0,1-1,1.85,6,6,0,0,1-1.62,1.33,9,9,0,0,1-2.08.85,12,12,0,0,1,3,.85,8.45,8.45,0,0,1,2.35,1.5,6.18,6.18,0,0,1,1.53,2.09A6.63,6.63,0,0,1,61,23.05a7.26,7.26,0,0,1-2.71,6.18c-1.81,1.38-4.52,2.06-8.13,2.06-.39,0-.84,0-1.36-.05l-1.59-.1L45.56,31c-.52,0-1-.05-1.36-.05H42.91V30.9a9.44,9.44,0,0,0,.22-1c.07-.41.13-.91.19-1.51s.09-1.31.11-2.14,0-1.79,0-2.9Zm3.56,5c.36,0,.69.06,1,.07h.92a7.36,7.36,0,0,0,2.42-.38,5,5,0,0,0,1.87-1.15,5.32,5.32,0,0,0,1.2-1.9,7.48,7.48,0,0,0,.43-2.67,7.9,7.9,0,0,0-.31-2.3,5,5,0,0,0-.93-1.77,4,4,0,0,0-1.51-1.12A5.13,5.13,0,0,0,50,4.07c-.5,0-.93,0-1.3,0s-.69.09-1,.14a4,4,0,0,0-.76.2Zm3.61,1.46c-.88,0-1.63,0-2.23.1s-1.06.13-1.38.2v5.91c0,1.53,0,2.78.08,3.77s.12,1.8.21,2.43l1.49.17c.49.05.89.08,1.19.08q3.64,0,5.34-1.63a6.71,6.71,0,0,0,1.69-5,7.2,7.2,0,0,0-.4-2.43,5.37,5.37,0,0,0-1.19-1.91,5.52,5.52,0,0,0-2-1.24A8.19,8.19,0,0,0,50.64,17.13Z" transform="translate(0)"/><path class="cls-1" d="M63.92,20.94a10.27,10.27,0,0,1,.82-4.09A10,10,0,0,1,67,13.58a10.31,10.31,0,0,1,3.39-2.17,11.2,11.2,0,0,1,4.2-.78,11.65,11.65,0,0,1,4.15.73,10.3,10.3,0,0,1,3.39,2.08,9.59,9.59,0,0,1,2.27,3.28,10.8,10.8,0,0,1,.83,4.34,10.82,10.82,0,0,1-.7,3.87,9.71,9.71,0,0,1-2.07,3.28,10,10,0,0,1-3.35,2.27,11.41,11.41,0,0,1-4.56.85,11.7,11.7,0,0,1-4.12-.72,10,10,0,0,1-3.38-2.07,9.69,9.69,0,0,1-2.29-3.27A10.72,10.72,0,0,1,63.92,20.94Zm11.08,9a6,6,0,0,0,2.55-.55,5.64,5.64,0,0,0,2-1.58,7.71,7.71,0,0,0,1.31-2.52,11.24,11.24,0,0,0,.46-3.36A16.23,16.23,0,0,0,80.88,18a9.84,9.84,0,0,0-1.34-3.12,6.23,6.23,0,0,0-5.38-2.81,5.9,5.9,0,0,0-2.54.54,5.78,5.78,0,0,0-2,1.55,7.21,7.21,0,0,0-1.32,2.49A10.85,10.85,0,0,0,67.83,20a15.81,15.81,0,0,0,.46,3.93,10,10,0,0,0,1.35,3.15,6.47,6.47,0,0,0,2.24,2.09A6.16,6.16,0,0,0,75,29.91Z" transform="translate(0)"/><path class="cls-1" d="M88,20.94a10.1,10.1,0,0,1,.82-4.09A9.85,9.85,0,0,1,91,13.58a10.31,10.31,0,0,1,3.39-2.17,11.2,11.2,0,0,1,4.2-.78,11.65,11.65,0,0,1,4.15.73,10.2,10.2,0,0,1,3.39,2.08,9.59,9.59,0,0,1,2.27,3.28,10.8,10.8,0,0,1,.83,4.34,10.82,10.82,0,0,1-.7,3.87,9.71,9.71,0,0,1-2.07,3.28,10,10,0,0,1-3.35,2.27,11.41,11.41,0,0,1-4.56.85,11.7,11.7,0,0,1-4.12-.72,10,10,0,0,1-3.38-2.07,9.84,9.84,0,0,1-2.29-3.27A10.89,10.89,0,0,1,88,20.94Zm11.07,9a6,6,0,0,0,2.55-.55,5.64,5.64,0,0,0,2-1.58,7.52,7.52,0,0,0,1.31-2.52,11.22,11.22,0,0,0,.47-3.36,16.22,16.22,0,0,0-.45-3.92,9.84,9.84,0,0,0-1.34-3.12,6.23,6.23,0,0,0-5.38-2.81,5.9,5.9,0,0,0-2.54.54,5.78,5.78,0,0,0-2,1.55,7.21,7.21,0,0,0-1.32,2.49A11.16,11.16,0,0,0,91.87,20a15.81,15.81,0,0,0,.46,3.93,10,10,0,0,0,1.36,3.15,6.44,6.44,0,0,0,2.23,2.09A6.19,6.19,0,0,0,99,29.91Z" transform="translate(0)"/><path class="cls-1" d="M113.65,9.42c0-1.11,0-2.08-.05-2.9s-.07-1.54-.12-2.14a14.39,14.39,0,0,0-.17-1.5,8.91,8.91,0,0,0-.23-1V1.78h4.51v.08q-.11.4-.21,1c-.07.4-.12.9-.18,1.5s-.09,1.31-.11,2.14,0,1.79,0,2.9v9.72l6.38-5.72c1.12-1,1.68-1.79,1.68-2.44h4.54v.08a5.2,5.2,0,0,0-1,.4,6.66,6.66,0,0,0-.92.58c-.31.22-.62.47-1,.75s-.69.59-1.08.94L120,19l7.85,9.28c.23.28.49.57.76.87s.55.56.82.81a8.61,8.61,0,0,0,.8.64,2.15,2.15,0,0,0,.72.35V31h-5.66a2.46,2.46,0,0,0-.26-1.05,8,8,0,0,0-1-1.39l-7-8.36v3.16c0,1.11,0,2.08,0,2.9s.06,1.54.11,2.14.11,1.1.18,1.51.14.74.21,1V31h-4.51V30.9a9.19,9.19,0,0,0,.23-1,15,15,0,0,0,.17-1.51c0-.6.09-1.31.12-2.14s.05-1.79.05-2.9Z" transform="translate(0)"/><path class="cls-1" d="M133.08,18.62c0-1.11,0-2.08-.05-2.9s-.07-1.54-.11-2.14-.11-1.1-.18-1.51-.15-.74-.22-1V11H137v.08a6.93,6.93,0,0,0-.27,1.09c-.07.43-.12,1-.16,1.66.48-.4,1-.8,1.5-1.19a14,14,0,0,1,1.6-1,10.58,10.58,0,0,1,1.67-.73,5.65,5.65,0,0,1,1.71-.27,8.09,8.09,0,0,1,.92.05,4.12,4.12,0,0,1,.7.14,3.81,3.81,0,0,1,.57.19l.49.21-1,3.73-.33-.08a2.65,2.65,0,0,0-.88-1.38,2.77,2.77,0,0,0-1.76-.52,4.3,4.3,0,0,0-1.27.22,7.41,7.41,0,0,0-1.34.59,13.75,13.75,0,0,0-1.37.88c-.46.34-.9.68-1.33,1.05,0,.38,0,.79,0,1.23v6.44c0,1.11,0,2.08,0,2.9s.07,1.54.12,2.14.11,1.1.17,1.51a9.44,9.44,0,0,0,.22,1V31h-4.51V30.9c.07-.27.15-.61.22-1s.13-.91.18-1.51.08-1.31.11-2.14.05-1.79.05-2.9Z" transform="translate(0)"/><path class="cls-1" d="M146.4,25.22a5.45,5.45,0,0,1,.64-2.68,6.11,6.11,0,0,1,1.69-1.93,9.21,9.21,0,0,1,2.4-1.3,18.56,18.56,0,0,1,2.79-.78,24.32,24.32,0,0,1,2.85-.39c.94-.07,1.8-.11,2.58-.13V17a6.72,6.72,0,0,0-.33-2.23,4,4,0,0,0-.94-1.55,3.79,3.79,0,0,0-1.45-.92,5.6,5.6,0,0,0-1.87-.3,7.87,7.87,0,0,0-1.38.11,8.18,8.18,0,0,0-1.42.39,10.29,10.29,0,0,0-1.54.75,15.58,15.58,0,0,0-1.75,1.19l-.2-.12,1.33-2.75a8.63,8.63,0,0,1,1.27-.48,11.19,11.19,0,0,1,1.27-.31c.43-.07.87-.13,1.32-.16s.92-.05,1.41-.05a11,11,0,0,1,3.51.5A6.4,6.4,0,0,1,161,12.46a5.23,5.23,0,0,1,1.36,2,7,7,0,0,1,.43,2.49v6.36c0,1.11,0,2.08.05,2.9s.07,1.54.12,2.14a15,15,0,0,0,.17,1.51,9.19,9.19,0,0,0,.23,1V31H159V30.9a3.45,3.45,0,0,0,.15-.7c0-.26.06-.57.09-.94a9.06,9.06,0,0,1-1,.72,7.59,7.59,0,0,1-1.27.68,8.66,8.66,0,0,1-3.49.67,7.84,7.84,0,0,1-5.25-1.59A5.63,5.63,0,0,1,146.4,25.22Zm12.95-5.68a34.18,34.18,0,0,0-3.42.2,9.27,9.27,0,0,0-2.9.77,4.92,4.92,0,0,0-2,1.67,5,5,0,0,0-.75,2.88,4.91,4.91,0,0,0,1.15,3.52,4.18,4.18,0,0,0,3.19,1.21,5.48,5.48,0,0,0,1.71-.26,5.94,5.94,0,0,0,1.36-.67,5.15,5.15,0,0,0,1-.88,4.29,4.29,0,0,0,.62-.93c0-.49,0-1,0-1.65V19.54Z" transform="translate(0)"/><path class="cls-1" d="M170.64,29.46h5.8a22,22,0,0,0,2.81-.17c.86-.11,1.61-.24,2.23-.38a13.85,13.85,0,0,0,2-.57l-.88,2.8c-.15,0-.42,0-.81-.05L180.57,31l-1.2,0H166v-.49l12.62-18h-4.08a22.83,22.83,0,0,0-3,.18c-.9.12-1.69.25-2.35.39a17.83,17.83,0,0,0-2.11.55l1.27-2.8a5.56,5.56,0,0,0,.81.06l1.22,0,1.2,0h11.77v.35Z" transform="translate(0)"/><path class="cls-1" d="M196,31.33a12,12,0,0,1-4.06-.68,9.55,9.55,0,0,1-3.3-2,9.29,9.29,0,0,1-2.22-3.27,11.42,11.42,0,0,1-.81-4.44,11.18,11.18,0,0,1,.74-4.09,10.14,10.14,0,0,1,2.05-3.27,9.54,9.54,0,0,1,3.06-2.17,9.2,9.2,0,0,1,3.78-.78,9.9,9.9,0,0,1,3.73.69,8.62,8.62,0,0,1,3,2,9.53,9.53,0,0,1,2,3.27,13.34,13.34,0,0,1,.79,4.42q-2.2,0-4.41-.06l-4.59,0-3.31,0c-1.08,0-2,0-2.9.06a15.42,15.42,0,0,0,.63,3.67,8.69,8.69,0,0,0,1.43,2.8,6,6,0,0,0,2.21,1.79,6.6,6.6,0,0,0,2.93.63,8.2,8.2,0,0,0,2.14-.27,7.44,7.44,0,0,0,1.83-.73,7,7,0,0,0,1.46-1.1,7.49,7.49,0,0,0,1.1-1.38l.23.12L202.07,30a11.87,11.87,0,0,1-2.52.93A13.89,13.89,0,0,1,196,31.33Zm-2.6-11.91h3.92c1.31,0,2.5,0,3.56-.07a12.34,12.34,0,0,0-.66-3.05A7.52,7.52,0,0,0,199,14a5.32,5.32,0,0,0-1.8-1.45,5.09,5.09,0,0,0-2.28-.51,4.41,4.41,0,0,0-2.08.5A4.89,4.89,0,0,0,191.19,14a7.42,7.42,0,0,0-1.13,2.29,11.88,11.88,0,0,0-.51,3.1c.58,0,1.2,0,1.85,0Z" transform="translate(0)"/><path class="cls-2" d="M22.31,9.45H.52A.5.5,0,0,1,0,9a.5.5,0,0,1,.5-.5H22.31a3.73,3.73,0,1,0,0-7.45H.5A.5.5,0,0,1,0,.5.5.5,0,0,1,.5,0H22.31a4.73,4.73,0,1,1,0,9.45Z" transform="translate(0)"/><path class="cls-3" d="M22.53,8.46H.51L.53.9,22.73,1A3.93,3.93,0,0,1,26.12,4.5L26.07,5A3.65,3.65,0,0,1,22.53,8.46Z" transform="translate(0)"/><path class="cls-2" d="M27.05,20.67H5.25a4.73,4.73,0,0,1,0-9.45H27.06a.5.5,0,0,1,0,1H5.25a3.73,3.73,0,0,0,0,7.45h21.8a.51.51,0,0,1,.5.5A.5.5,0,0,1,27.05,20.67Z" transform="translate(0)"/><path class="cls-4" d="M5.34,19.69H27.05V12.21l-22,0a3.53,3.53,0,0,0-3.5,3.5v.45A3.53,3.53,0,0,0,5.34,19.69Z" transform="translate(0)"/><path class="cls-2" d="M22.35,32H.55a.51.51,0,0,1-.5-.5.5.5,0,0,1,.5-.5h21.8a3.73,3.73,0,0,0,0-7.46H.54A.5.5,0,0,1,0,23a.5.5,0,0,1,.5-.5H22.35a4.73,4.73,0,0,1,0,9.46Z" transform="translate(0)"/><path class="cls-5" d="M22.58,31H.55V23.55h22A3.61,3.61,0,0,1,26.09,27v.56A3.66,3.66,0,0,1,22.58,31Z" transform="translate(0)"/><path class="cls-4" d="M32.52,0h0A4.07,4.07,0,0,1,36.6,4.07V27.93A4.07,4.07,0,0,1,32.52,32h0a4.08,4.08,0,0,1-4.08-4.08V4.07A4.07,4.07,0,0,1,32.52,0Z"/><rect class="cls-2" x="29.68" y="2.54" width="5.69" height="1.59" rx="0.79"/><rect class="cls-2" x="29.68" y="5.29" width="5.69" height="1.59" rx="0.79"/></svg>